# xmcd
#
# Track frame offsets: 
#        150
#        3669
#        8321
#        27100
#        50570
#        72237
#        92536
#        109920
#        128865
#        147053
#        165074
#        186072
#        204511
#        219824
#        238105
#        258102
#        273335
#        287037
#        303037
#        330696
#
# Disc length: 4462 seconds
#
# Revision: 0
# Processed by: cddbd v1.5.2PL0 Copyright (c) Steve Scherf et al.
# Submitted via: ExactAudioCopy v0.99pb3
#
DISCID=02116c14
DTITLE=Lupe Fiasco - The Cool
DYEAR=2007
DGENRE=Hip-Hop
TTITLE0=Baba Says Cool For Thought
TTITLE1=Free Chilly feat. Genstones, Sarah Green
TTITLE2=Go Go Gadget Flow
TTITLE3=The Coolest
TTITLE4=Superstar feat. Matthew Santos
TTITLE5=Paris, Tokyo
TTITLE6=Hi-Definition feat. Pooh Bear, Snoop Dogg
TTITLE7=Gold Watch
TTITLE8=Hip-Hop Saved My Life feat. Nikki Jean
TTITLE9=Intruder Alert feat. Sarah Green
TTITLE10=Streets on Fire
TTITLE11=Little Weapon feat. Bishop G, Nikki Jean
TTITLE12=Gotta Eat
TTITLE13=Dumb It Down feat. GemStones, Graham Burris
TTITLE14=Hello/Goodbye (Uncool) feat. Unkle
TTITLE15=The Die feat. GenStones
TTITLE16=Put You on Game
TTITLE17=Fighters feat. Matthew Santos
TTITLE18=Go Baby feat. GemStones
TTITLE19=Data
EXTD=
EXTT0=
EXTT1=
EXTT2=
EXTT3=
EXTT4=
EXTT5=
EXTT6=
EXTT7=
EXTT8=
EXTT9=
EXTT10=
EXTT11=
EXTT12=
EXTT13=
EXTT14=
EXTT15=
EXTT16=
EXTT17=
EXTT18=
EXTT19=
PLAYORDER=
